<svg viewBox="0 0 749.566650390625 400" xmlns="http://www.w3.org/2000/svg"><g><g><g><g><g><line x1="39.98800086975098" y1="378.5999994277954" x2="34.98800086975098" y2="378.5999994277954" style="visibility: inherit;" fill="rgb(0, 0, 0)" stroke="rgb(204, 204, 204)" stroke-width="1px"></line><line x1="39.98800086975098" y1="351.55714232581005" x2="34.98800086975098" y2="351.55714232581005" style="visibility: inherit;" fill="rgb(0, 0, 0)" stroke="rgb(204, 204, 204)" stroke-width="1px"></line><line x1="39.98800086975098" y1="324.51428522382463" x2="34.98800086975098" y2="324.51428522382463" style="visibility: inherit;" fill="rgb(0, 0, 0)" stroke="rgb(204, 204, 204)" stroke-width="1px"></line><line x1="39.98800086975098" y1="297.47142812183927" x2="34.98800086975098" y2="297.47142812183927" style="visibility: inherit;" fill="rgb(0, 0, 0)" stroke="rgb(204, 204, 204)" stroke-width="1px"></line><line x1="39.98800086975098" y1="270.42857101985385" x2="34.98800086975098" y2="270.42857101985385" style="visibility: inherit;" fill="rgb(0, 0, 0)" stroke="rgb(204, 204, 204)" stroke-width="1px"></line><line x1="39.98800086975098" y1="243.3857139178685" x2="34.98800086975098" y2="243.3857139178685" style="visibility: inherit;" fill="rgb(0, 0, 0)" stroke="rgb(204, 204, 204)" stroke-width="1px"></line><line x1="39.98800086975098" y1="216.3428568158831" x2="34.98800086975098" y2="216.3428568158831" style="visibility: inherit;" fill="rgb(0, 0, 0)" stroke="rgb(204, 204, 204)" stroke-width="1px"></line><line x1="39.98800086975098" y1="189.2999997138977" x2="34.98800086975098" y2="189.2999997138977" style="visibility: inherit;" fill="rgb(0, 0, 0)" stroke="rgb(204, 204, 204)" stroke-width="1px"></line><line x1="39.98800086975098" y1="162.25714261191234" x2="34.98800086975098" y2="162.25714261191234" style="visibility: inherit;" fill="rgb(0, 0, 0)" stroke="rgb(204, 204, 204)" stroke-width="1px"></line><line x1="39.98800086975098" y1="135.21428550992692" x2="34.98800086975098" y2="135.21428550992692" style="visibility: inherit;" fill="rgb(0, 0, 0)" stroke="rgb(204, 204, 204)" stroke-width="1px"></line><line x1="39.98800086975098" y1="108.17142840794156" x2="34.98800086975098" y2="108.17142840794156" style="visibility: inherit;" fill="rgb(0, 0, 0)" stroke="rgb(204, 204, 204)" stroke-width="1px"></line><line x1="39.98800086975098" y1="81.12857130595614" x2="34.98800086975098" y2="81.12857130595614" style="visibility: inherit;" fill="rgb(0, 0, 0)" stroke="rgb(204, 204, 204)" stroke-width="1px"></line><line x1="39.98800086975098" y1="54.08571420397078" x2="34.98800086975098" y2="54.08571420397078" style="visibility: inherit;" fill="rgb(0, 0, 0)" stroke="rgb(204, 204, 204)" stroke-width="1px"></line><line x1="39.98800086975098" y1="27.042857101985362" x2="34.98800086975098" y2="27.042857101985362" style="visibility: inherit;" fill="rgb(0, 0, 0)" stroke="rgb(204, 204, 204)" stroke-width="1px"></line><line x1="39.98800086975098" y1="0" x2="34.98800086975098" y2="0" style="visibility: inherit;" fill="rgb(0, 0, 0)" stroke="rgb(204, 204, 204)" stroke-width="1px"></line></g><g transform="translate(29.988000869750977, 0)"><text style="text-anchor: end; visibility: hidden; font-family: &quot;Helvetica Neue&quot;, sans-serif; font-size: 12px; font-weight: 200;" x="0" y="378.5999994277954" dx="0em" dy="0.3em" fill="rgb(50, 49, 63)" stroke="none" stroke-width="1px">-10</text><text style="text-anchor: end; visibility: inherit; font-family: &quot;Helvetica Neue&quot;, sans-serif; font-size: 12px; font-weight: 200;" x="0" y="351.55714232581005" dx="0em" dy="0.3em" fill="rgb(50, 49, 63)" stroke="none" stroke-width="1px">-5</text><text style="text-anchor: end; visibility: inherit; font-family: &quot;Helvetica Neue&quot;, sans-serif; font-size: 12px; font-weight: 200;" x="0" y="324.51428522382463" dx="0em" dy="0.3em" fill="rgb(50, 49, 63)" stroke="none" stroke-width="1px">0</text><text style="text-anchor: end; visibility: inherit; font-family: &quot;Helvetica Neue&quot;, sans-serif; font-size: 12px; font-weight: 200;" x="0" y="297.47142812183927" dx="0em" dy="0.3em" fill="rgb(50, 49, 63)" stroke="none" stroke-width="1px">5</text><text style="text-anchor: end; visibility: inherit; font-family: &quot;Helvetica Neue&quot;, sans-serif; font-size: 12px; font-weight: 200;" x="0" y="270.42857101985385" dx="0em" dy="0.3em" fill="rgb(50, 49, 63)" stroke="none" stroke-width="1px">10</text><text style="text-anchor: end; visibility: inherit; font-family: &quot;Helvetica Neue&quot;, sans-serif; font-size: 12px; font-weight: 200;" x="0" y="243.3857139178685" dx="0em" dy="0.3em" fill="rgb(50, 49, 63)" stroke="none" stroke-width="1px">15</text><text style="text-anchor: end; visibility: inherit; font-family: &quot;Helvetica Neue&quot;, sans-serif; font-size: 12px; font-weight: 200;" x="0" y="216.3428568158831" dx="0em" dy="0.3em" fill="rgb(50, 49, 63)" stroke="none" stroke-width="1px">20</text><text style="text-anchor: end; visibility: inherit; font-family: &quot;Helvetica Neue&quot;, sans-serif; font-size: 12px; font-weight: 200;" x="0" y="189.2999997138977" dx="0em" dy="0.3em" fill="rgb(50, 49, 63)" stroke="none" stroke-width="1px">25</text><text style="text-anchor: end; visibility: inherit; font-family: &quot;Helvetica Neue&quot;, sans-serif; font-size: 12px; font-weight: 200;" x="0" y="162.25714261191234" dx="0em" dy="0.3em" fill="rgb(50, 49, 63)" stroke="none" stroke-width="1px">30</text><text style="text-anchor: end; visibility: inherit; font-family: &quot;Helvetica Neue&quot;, sans-serif; font-size: 12px; font-weight: 200;" x="0" y="135.21428550992692" dx="0em" dy="0.3em" fill="rgb(50, 49, 63)" stroke="none" stroke-width="1px">35</text><text style="text-anchor: end; visibility: inherit; font-family: &quot;Helvetica Neue&quot;, sans-serif; font-size: 12px; font-weight: 200;" x="0" y="108.17142840794156" dx="0em" dy="0.3em" fill="rgb(50, 49, 63)" stroke="none" stroke-width="1px">40</text><text style="text-anchor: end; visibility: inherit; font-family: &quot;Helvetica Neue&quot;, sans-serif; font-size: 12px; font-weight: 200;" x="0" y="81.12857130595614" dx="0em" dy="0.3em" fill="rgb(50, 49, 63)" stroke="none" stroke-width="1px">45</text><text style="text-anchor: end; visibility: inherit; font-family: &quot;Helvetica Neue&quot;, sans-serif; font-size: 12px; font-weight: 200;" x="0" y="54.08571420397078" dx="0em" dy="0.3em" fill="rgb(50, 49, 63)" stroke="none" stroke-width="1px">50</text><text style="text-anchor: end; visibility: inherit; font-family: &quot;Helvetica Neue&quot;, sans-serif; font-size: 12px; font-weight: 200;" x="0" y="27.042857101985362" dx="0em" dy="0.3em" fill="rgb(50, 49, 63)" stroke="none" stroke-width="1px">55</text><text style="text-anchor: end; visibility: hidden; font-family: &quot;Helvetica Neue&quot;, sans-serif; font-size: 12px; font-weight: 200;" x="0" y="0" dx="0em" dy="0.3em" fill="rgb(50, 49, 63)" stroke="none" stroke-width="1px">60</text></g><line x1="39.98800086975098" y1="0" x2="39.98800086975098" y2="378.5999994277954" fill="rgb(0, 0, 0)" stroke="rgb(204, 204, 204)" stroke-width="1px"></line></g></g><g transform="translate(39, 0)" clip-path="url(#clip_0)"><clipPath id="clip_0"><rect width="709" height="378"></rect></clipPath><g><g><g><line x1="0" y1="0" x2="0" y2="378.5999994277954" fill="rgb(0, 0, 0)" stroke="rgb(60, 60, 60)" stroke-width="1px" opacity="0.25"></line><line x1="78.84211101447211" y1="0" x2="78.84211101447211" y2="378.5999994277954" fill="rgb(0, 0, 0)" stroke="rgb(60, 60, 60)" stroke-width="1px" opacity="0.25"></line><line x1="157.68422202894422" y1="0" x2="157.68422202894422" y2="378.5999994277954" fill="rgb(0, 0, 0)" stroke="rgb(60, 60, 60)" stroke-width="1px" opacity="0.25"></line><line x1="236.52633304341634" y1="0" x2="236.52633304341634" y2="378.5999994277954" fill="rgb(0, 0, 0)" stroke="rgb(60, 60, 60)" stroke-width="1px" opacity="0.25"></line><line x1="315.36844405788844" y1="0" x2="315.36844405788844" y2="378.5999994277954" fill="rgb(0, 0, 0)" stroke="rgb(60, 60, 60)" stroke-width="1px" opacity="0.25"></line><line x1="394.2105550723606" y1="0" x2="394.2105550723606" y2="378.5999994277954" fill="rgb(0, 0, 0)" stroke="rgb(60, 60, 60)" stroke-width="1px" opacity="0.25"></line><line x1="473.0526660868327" y1="0" x2="473.0526660868327" y2="378.5999994277954" fill="rgb(0, 0, 0)" stroke="rgb(60, 60, 60)" stroke-width="1px" opacity="0.25"></line><line x1="551.8947771013048" y1="0" x2="551.8947771013048" y2="378.5999994277954" fill="rgb(0, 0, 0)" stroke="rgb(60, 60, 60)" stroke-width="1px" opacity="0.25"></line><line x1="630.7368881157769" y1="0" x2="630.7368881157769" y2="378.5999994277954" fill="rgb(0, 0, 0)" stroke="rgb(60, 60, 60)" stroke-width="1px" opacity="0.25"></line><line x1="709.578999130249" y1="0" x2="709.578999130249" y2="378.5999994277954" fill="rgb(0, 0, 0)" stroke="rgb(60, 60, 60)" stroke-width="1px" opacity="0.25"></line></g><g><line x1="0" y1="378.5999994277954" x2="709.578999130249" y2="378.5999994277954" fill="rgb(0, 0, 0)" stroke="rgb(60, 60, 60)" stroke-width="1px" opacity="0.25"></line><line x1="0" y1="351.55714232581005" x2="709.578999130249" y2="351.55714232581005" fill="rgb(0, 0, 0)" stroke="rgb(60, 60, 60)" stroke-width="1px" opacity="0.25"></line><line x1="0" y1="324.51428522382463" x2="709.578999130249" y2="324.51428522382463" fill="rgb(0, 0, 0)" stroke="rgb(60, 60, 60)" stroke-width="1px" opacity="0.25"></line><line x1="0" y1="297.47142812183927" x2="709.578999130249" y2="297.47142812183927" fill="rgb(0, 0, 0)" stroke="rgb(60, 60, 60)" stroke-width="1px" opacity="0.25"></line><line x1="0" y1="270.42857101985385" x2="709.578999130249" y2="270.42857101985385" fill="rgb(0, 0, 0)" stroke="rgb(60, 60, 60)" stroke-width="1px" opacity="0.25"></line><line x1="0" y1="243.3857139178685" x2="709.578999130249" y2="243.3857139178685" fill="rgb(0, 0, 0)" stroke="rgb(60, 60, 60)" stroke-width="1px" opacity="0.25"></line><line x1="0" y1="216.3428568158831" x2="709.578999130249" y2="216.3428568158831" fill="rgb(0, 0, 0)" stroke="rgb(60, 60, 60)" stroke-width="1px" opacity="0.25"></line><line x1="0" y1="189.2999997138977" x2="709.578999130249" y2="189.2999997138977" fill="rgb(0, 0, 0)" stroke="rgb(60, 60, 60)" stroke-width="1px" opacity="0.25"></line><line x1="0" y1="162.25714261191234" x2="709.578999130249" y2="162.25714261191234" fill="rgb(0, 0, 0)" stroke="rgb(60, 60, 60)" stroke-width="1px" opacity="0.25"></line><line x1="0" y1="135.21428550992692" x2="709.578999130249" y2="135.21428550992692" fill="rgb(0, 0, 0)" stroke="rgb(60, 60, 60)" stroke-width="1px" opacity="0.25"></line><line x1="0" y1="108.17142840794156" x2="709.578999130249" y2="108.17142840794156" fill="rgb(0, 0, 0)" stroke="rgb(60, 60, 60)" stroke-width="1px" opacity="0.25"></line><line x1="0" y1="81.12857130595614" x2="709.578999130249" y2="81.12857130595614" fill="rgb(0, 0, 0)" stroke="rgb(60, 60, 60)" stroke-width="1px" opacity="0.25"></line><line x1="0" y1="54.08571420397078" x2="709.578999130249" y2="54.08571420397078" fill="rgb(0, 0, 0)" stroke="rgb(60, 60, 60)" stroke-width="1px" opacity="0.25"></line><line x1="0" y1="27.042857101985362" x2="709.578999130249" y2="27.042857101985362" fill="rgb(0, 0, 0)" stroke="rgb(60, 60, 60)" stroke-width="1px" opacity="0.25"></line><line x1="0" y1="0" x2="709.578999130249" y2="0" fill="rgb(0, 0, 0)" stroke="rgb(60, 60, 60)" stroke-width="1px" opacity="0.25"></line></g></g></g><g><g><line x1="0" y1="324.51428522382463" x2="709.578999130249" y2="324.51428522382463" fill="rgb(0, 0, 0)" stroke="rgb(153, 153, 153)" stroke-width="1.5px"></line></g></g><g><g><line x1="78.84211101447211" y1="0" x2="78.84211101447211" y2="378.5999994277954" fill="rgb(0, 0, 0)" stroke="rgb(153, 153, 153)" stroke-width="1.5px"></line></g></g><g><g><g><g><g><path style="fill: none;" stroke="rgb(255, 112, 67)" stroke-width="2px" d="M91.5987645766137,-8.140350671954593L92.02451197609184,0.11104588427809858L93.74326999620736,5.254880367956787L94.15324897348259,-6.0116187155906005L97.44884921388754,-4.635829377711616L98.72609141232198,18.75997285387581L99.59335463348118,49.67023875120776L99.64065990008986,18.218567474557062L99.86141781093038,0.190679843364137L99.92449149974195,4.649946362530727L100.6813757654809,-14.399013531074957L100.79175472090115,11.374778463909252L101.4855652978285,19.217715830225814L101.95861796391534,43.19501477933329L102.85741802948033,4.239950077783419L103.31470227336426,16.89143037799363L103.56699702861057,46.029869828297024L103.81929178385688,33.821712158650314L104.68655500501606,16.19415054473785L105.4907445373637,48.21343420070434L105.77457613701579,56.052733484025055L105.91649193684184,33.04033422296186L106.16878669208815,40.42851490413091L106.21609195869684,60.01911329098965L106.90990253562418,49.64568246296216L107.90331313440653,67.84524389322581L108.25021842287022,71.72015438268045L108.2975236894789,40.188590469529345L108.42367106710205,52.09779118982908L109.05440795521784,81.59466116330503L109.32247113266703,87.32154011170007L109.52746062130466,91.67523326642026L110.93085019736226,83.3706398898317L111.87695552953593,79.48628212054325L113.31188194999932,89.98572617557664L113.50110301643404,100.44386360162798L114.00569252692668,113.663941756263L114.10030306014404,112.15634236491621L114.41567150420192,86.85209758669555L114.4945136152164,109.96630245062778L115.20409261434665,115.14720966420163L115.39331368078139,71.48471861167297L115.94520845788269,92.65292599073916L116.497103234984,113.08184429500335L116.5128716571869,128.15716409888907L117.22245065631715,113.2568378451478L117.49051383376634,136.9873900825231L117.52205067817214,135.66132527666667L117.60089278918662,120.82051904827671L117.99510334425898,124.96930087668426L118.01087176646186,117.6521899894123L118.20009283289659,110.41757783246015L118.27893494391107,95.83818279085642L118.736219187795,116.35948585086663L118.97274552083842,135.30560924535766L119.0673560540558,125.78609717005386L121.14878778483784,151.77508188533417L122.01605100599704,154.04243418305936L122.78870369393887,170.2594592723375L124.47592486964858,187.22351134039036L125.59548284605407,177.25147303972776L126.71504082245959,171.6343574397405L126.76234608906826,190.180266310327L127.67691457683614,167.17804253591692L128.6545567534156,177.75220523130014L129.7425778854153,166.46254825375468L129.94756737405294,190.86142258227173L129.97910421845873,185.4014642467428L129.9948726406616,198.2754125926734L130.9094411284295,180.4466437356884L133.66891501393602,192.2301242691155L135.56112567828333,187.57074385146117L135.84495727793546,194.61166992698787L135.87649412234123,180.23378811022695L136.66491523248595,160.55888251297878L137.54794687584806,174.00930802967264L137.78447320889148,185.88119991962216L138.60443116344197,186.41310469691658L138.93556802970275,178.90034848774704L139.045946985123,164.5887749624033L140.73316816083272,181.5375786043361L141.17468398251376,175.01395286522683L141.61619980419482,198.034599941519L142.43615775874534,184.28276890230666L143.39803151312188,179.91840031047508L144.94333688900554,175.9121992861055L145.43215797729528,197.4012250566825L145.51100008830974,196.26874468416713L146.64632648691813,206.58781527087726L146.85131597555576,207.48063690517773L146.88285281996153,183.89849458504878L148.16009501839602,202.76765730892333L149.61078986106227,209.3257908552988L149.8788530385115,180.91161243607576L150.20998990477227,178.34117707976966L151.75529528065593,170.90727150568955L152.32295847996014,173.46936138618872L152.38603216877172,178.84439545077458L152.51217954639486,186.0998581120233L153.67904278940904,195.79179890394974L154.27824283311904,168.062449170185L154.49900074395956,177.3030975758816L155.09820078766955,198.08901650520508L155.28742185410428,180.29141094756912L155.93392716442295,192.36670900530538L157.00617987421978,196.61245497041116L157.14809567404583,198.02302170653581L157.1954009406545,203.05163001469566L158.39380102807448,196.08200841483753L158.42533787248027,207.0006388480241L159.27683267143658,212.02093073949862L159.71834849311762,188.51427711643893L161.37403282442153,163.68691602737886L162.79319082268202,166.0829957900048L163.04548557792833,171.8970643257258L163.26624348876885,179.3438685439434L164.22811724314542,189.59868498898177L165.75765419682617,209.33890627426996L166.2622437073188,213.5913460142402L168.07561226065167,213.92397310141067L168.29637017149216,201.41341805612316L168.99018074841953,199.35153554527508L170.33049663566555,204.28169249565136L170.59855981311478,206.10336469600506L170.64586507972345,207.13603842521098L171.21352827902763,211.63850205425706L171.3239072344479,213.42732781662806L171.89157043375212,208.39548970384158L172.22270730001287,206.53555931043178L173.20034947659235,216.82299524572403L173.51571792065022,214.82538376724642L175.2660127851715,216.93436070992976L175.42369700720047,216.3770850661895L176.51171813920018,222.81154813942672L176.71670762783782,221.92776872476912L176.81131816105517,230.32370070452802L177.0163076496928,207.14231124234365L177.91510771525776,211.29153675109066L178.27778142592433,207.06638841213396L178.35662353693883,202.18163098284458L179.28696044690957,202.0136898508156L179.66540257977903,189.9389744018033L181.5418448219235,197.32360165448839L182.3933396208798,200.1967817308113L182.85062386476375,216.96944370940798L183.70211866372003,194.54792194831984L184.3170871296329,203.7683841932159L184.3643923962416,204.43170750079665L184.5536134626763,204.48619029057326L185.04243455096605,204.73321462784244L186.68235046006706,204.44769016426667L186.80849783769023,198.35393494612984L187.04502417073365,173.55711802475423L188.57456112441443,188.64808268893654L188.98454010168965,177.9943866565531L189.33144539015333,196.8395382141561L190.78214023281961,209.0068997109491L190.90828761044276,211.6738365212406L191.55479292076146,210.12262528761926L193.00548776342774,215.03379470547512L193.99889836221007,211.95465745076996L194.44041418389114,198.81025121280484L194.45618260609402,209.4552683204858L194.75578262794903,183.12521501925835L195.11845633861557,190.0858318362826L195.41805636047056,201.66334100468052L196.1907090484124,222.14992432297888L196.34839327044136,212.3495139625414L196.39569853705004,200.82364538546574L196.63222487009344,215.30677202112787L197.15258280278897,217.22942764925943L199.92782511049836,216.4900176253856L200.02243564371577,207.4161058233168L201.07891993130968,195.50044873975665L201.5204357529907,195.0772117238641L201.67811997501965,202.99058455985954L202.23001475212095,180.4888996211867L203.2864990397149,194.44915183195565L203.79108855020752,205.55548969953878L204.7214254601783,205.3108481373109L205.2733202372796,209.4235466248886L205.90405712539535,211.01748424093427L207.68588883432244,186.1465615924066L208.23778361142374,179.6325319980908L208.33239414464114,171.4637441976156L209.42041527664085,190.17383473775362L210.11422585356817,179.24110374277532L210.57151009745212,197.41983651238382L210.6503522084666,200.05670427449184L210.79226800829264,213.052875591201L212.21142600655313,205.17599482004286L212.2587312731618,210.89241096405476L212.70024709484287,206.33880619793277L212.85793131687183,209.6333907743942L213.7724998046397,200.37140452791994L214.324394581741,215.05392939498472L214.8605209366394,189.413214152106L215.80662626881306,201.62594037851383L217.76191062197196,208.32966190032388L217.80921588858064,210.99277985186217L218.69224753194274,214.24741330429543L219.10222650921799,220.69581262500597L219.14953177582666,218.43553132645837L219.46490021988458,221.90827037366205L219.57527917530484,212.59317827793674L220.4898476630727,204.41803957261232L220.5844581962901,213.36238093714485L221.46748983965216,212.149860857996L224.1638900363471,213.54546906531263L224.27426899176737,217.05364595767796L224.70001639124553,218.06956021823513L225.5830480346076,212.41020333988124L226.08763754510022,218.44879545058683L227.0968165660855,205.4129958729369L227.14412183269417,202.21418565882217L227.45949027675204,202.60451602838987L227.97984820944757,224.69070114561217L229.22555356347624,224.64344715535475L229.33593251889647,214.5930706278092L229.5409220075341,215.96125595094196L230.4870273397078,218.0701994932579L230.9600800057946,213.22643888562712L231.3227537164612,212.93240750462178L231.6065853161133,224.9319297836211L232.694606448113,221.84156020373183L233.8772381133301,214.85571894331795L234.8864171343153,200.2175037078447L235.91136457750346,201.87281397283226L237.26744888695237,215.85293970301063L237.67742786422764,212.77006347164246L239.00197532927078,207.9834277445638L240.70496492718334,216.75690231826098L240.81534388260363,206.58274995817538L242.5971755915307,205.77807805921276L242.6444808581394,210.7701786757015L242.97561772440017,209.97700131504746L243.90595463437094,209.4475008950727L244.06363885639988,212.084302882312L244.12671254521143,219.13403895496228L244.58399678909538,211.58534279071804L245.90854425413852,214.65729145046618L246.1766074315877,208.57876348864772L246.39736534242826,222.09153566661016L246.64966009767457,217.78802495523934L246.91772327512376,214.36366584531336L247.54846016323953,215.25410324513166L248.2738075845727,221.43024856181663L248.28957600677558,225.38192943409402L248.63648129523926,217.6467933134981L249.18837607234056,205.64259418791266L249.5983550496158,205.8260028848109L249.74027084944188,208.0552384245317L249.9610287602824,212.87290904491124L250.56022880399237,218.25520120048412L250.60753407060105,216.0336533894975L251.14366042549946,219.62325237297793L251.20673411431108,210.12589819754257L251.56940782497762,213.5608199687608L251.664018358195,227.52682856381801L251.69555520260076,214.68466306294124L252.32629209071658,218.87504957734424L252.42090262393393,231.8965988662558L252.62589211257156,229.61042306539608L252.70473422358603,227.0689354992626L253.71391324457127,227.80605566237682L254.01351326642626,215.97978706981277L254.1554290662523,226.4782526226182L254.86500806538254,224.03935344167246L255.22768177604914,224.27188171907738L255.25921862045493,232.47696067308883L255.2749870426578,231.99921585336713L256.2053239526286,205.32436955921597L258.6967346606859,196.8754710823509L259.5324610374393,218.12561347001028L259.84782948149723,212.93905566184503L260.3366505697869,205.87732123885957L260.47856636961296,213.0515262758884L260.7466295470622,204.6462976492436L261.01469272451135,227.47412957636115L261.5035138128011,226.59434200070606L262.3077033451487,220.22965951619875L262.67037705581527,233.50491803302066L262.8911349666558,220.06301165737935L264.05799820967,215.50206357304967L265.85559834079993,216.6085786493699L267.36936687227785,221.13693689683015L267.44820898329226,219.40805767270004L268.0158721825965,219.51898787601658L268.50469327088626,207.9544108565466L270.03423022456695,222.90368158205348L79.06286892531264,219.6064315219253L270.49151446845093,217.3398510594013L270.7438092236972,219.9600059063281L271.4060829562188,196.1732358268532L272.415261977204,221.80578855746703L272.4625672438127,210.75796944350657L272.71486199905905,221.57607655094836L274.2286305305369,221.042351427945L275.06435690729035,207.93267365489353L276.5623570165653,193.8760447665772L278.4230308365068,211.3235555503691L278.86454665818786,234.23577491006313L279.79488356815864,226.03460955170954L280.53599941169466,208.9256611301958L281.6713258103031,214.71448236497494L281.97092583215806,190.05822687549858L282.6489679868825,206.46081797130537L282.9643364309404,205.2167904870019L283.8631364965054,220.63469250297092L284.1311996739546,211.4389507737776L284.55694707343275,229.27454436208612L284.88808393969356,245.2099141955729L285.07730500612826,216.97503733490205L285.3138313391717,235.88711797620886L285.3769050279833,206.39339254176045L285.64496820543246,208.51418759994877L286.21263140473667,211.74397230490953L286.84336829285246,199.27457765841075L287.36372622554796,207.63376372420888L289.09825266786635,212.71695360696393L289.9339790446198,224.34116224324913L289.9970527334313,229.19517283542214L290.3124211774892,226.182039979688L291.085073865431,216.50803144544L291.542358109315,212.98898465155614L292.20463184183654,198.86884126808206L293.00882137418415,200.50336562507877L293.3714950848507,198.91208854743738L294.3018319948215,212.0589757701563L294.3491372614302,211.15747087533077L295.3740847046183,224.2353653118888L295.8313689485023,238.76530328522293L296.35172688119775,236.86561564831408L296.9036216582991,228.51881533210556L297.26629536896564,223.02953232818112L297.518590124212,206.4300480794088L298.6696849450233,213.94536165346406L298.96928496687826,225.87657595089954L299.31619025534195,231.33198138369616L300.6092008759793,234.2896499571144L302.83254840658736,230.00301701381616L303.8732642719784,209.09531670710751L303.98364322739866,218.65455950804306L304.1255590272247,225.44888291416086L304.39362220467393,229.88472312930494L304.5828432711087,222.74656218110687L304.67745380432603,227.28848774796694L305.6077907142968,215.0177560194838L306.39621182444154,225.69331364133404L307.13732766797756,235.20768353261286L307.70499086728177,233.16571903230437L308.0834330001512,225.4965164226668L308.1307382667599,222.985294941293L309.2976015097741,216.27059254505545L309.39221204299145,226.61261516531673L309.8652647090783,210.932614525612L310.00718050890436,225.64007211774694L310.07025419771594,217.74585189622348L310.1648647309333,222.37527113148636L311.6155595735996,230.3361201544062L311.6313279958025,241.08199188489954L311.7574753734256,218.63052843906254L311.8205490622372,232.6023626415095L312.0886122396864,214.49000072263942L313.09779126067167,224.1313226147166L313.39739128252666,222.6148538550682L313.93351763742504,220.56458939349463L315.5261282799174,231.01664131591514L316.51953887869973,229.31774354314132L317.2448863000329,232.16310309022955L317.93869687696025,217.43215043425744L318.23829689881524,231.28706315220552L319.2947811864091,219.38683843461862L320.209349674177,224.74659744642304L320.5720233848436,225.15545089660858L322.54307616020543,226.1934195656072L322.5746130046112,227.12119548332595L323.0792025151038,226.8558183756934L323.56802360339356,225.18907572308038L324.49836051336433,224.9980846287397L326.7532448883782,227.1490139324198L327.13168702124767,215.8369026006206L327.2736028210737,228.9312093399457L327.36821335429113,229.7765596720526L328.09356077562427,215.22721170060953L328.1408660422329,214.8347493560688L328.4404660640879,224.73923197114146L330.52189779487,203.7191098158505L330.7426557057105,209.08290159526194L332.35103477040576,204.39182759355398L332.68217163666657,195.51699056850987L334.76360336744864,210.5990695598294L335.898929766057,205.74967273437662L336.2458350545207,225.8474925017064L336.5138982319699,210.63504651012957L337.23924565330304,223.2587747917321L337.77537200820143,222.69191962685346L338.80031945138956,222.5101551490504L339.65181425034586,236.6351419538266L340.0617932276211,226.93336238927094L340.1406353386356,223.31982793827638L341.2601933150411,228.18482059976228L341.8278565143453,243.4289579180595L342.6005092022871,216.92837996841848L343.5781513788666,197.80398840192996L343.5939198010695,199.41048383341368L344.1300461559679,209.74668383450546L344.3508040668084,216.65509625861108L345.01307779932995,232.38925797182657L347.63063588501046,215.6926731933798L348.11945697330015,218.83247207699617L348.6555833281986,207.46195895806372L349.61745708257513,220.36004516471428L349.77514130460406,217.15362930732428L350.3585729261112,209.09767408609122L350.4847203037343,217.15420654701754L350.87893085880665,216.01238176297596L351.1627624584588,223.71137222642508L351.1942993028646,226.24892632395665L351.55697301353115,226.68321170159396L351.57274143573403,226.49255867193193L351.5885098579369,221.94546760650454L351.6358151245457,207.94504836393688L351.93541514640066,202.8663932798905L352.4873099235019,205.19105934052166L352.97613101179167,216.10116908200308L353.5910994777045,225.63265345492144L353.7487836997335,233.28535182277253L355.1521732757911,236.2243516807004L355.37293118663155,236.38140767170765L355.8302154305155,230.8484291020782L355.9405943859358,219.05993639993983L355.9563628081387,220.9761614277974L356.41364705202267,231.29343822664273L356.5713312740516,230.78479415215196L356.8866997181095,243.91074250063537L357.9747208501092,220.2525698817384L358.747373538051,229.56968929428774L359.2677314707466,237.0190905954754L359.8511630922536,223.78222297062774L361.60145795677494,221.33898508657208L361.99566851184727,210.61628189087634L362.042973778456,215.98066444626232L362.184889578282,236.69881880302214L362.626405399963,228.11401044116784L363.17830017706433,201.98053742059676L363.3675212434991,202.62062249479166L364.3767002644843,206.18638779762082L364.6447634419335,221.77309009132904L365.7170161517303,212.60039600804345L366.063921440194,218.40048731320707L366.5054372618751,218.32306129285755L367.35693206083135,219.56865749301406L369.45413221381637,227.85427408957153L369.4699006360192,234.73025510873418L370.96790074529423,230.60183893229504L371.6774797444245,216.78557700097633L373.56969040877175,214.05263046457887L373.68006936419204,223.73745110006124L375.6511221395538,224.4596406113535L376.4080064052927,224.45776615864207L377.4329538484809,232.64214582453172L377.7325538703359,230.40183682582213L377.8113959813504,229.87053122194826L378.17406969201693,224.37521078369423L378.5209749804807,218.82018272847705L378.8521118467414,217.26978977141465L379.92436455653825,223.86996966290502L380.7600909332916,227.8229413096245L381.67465942105946,218.9171569956736L382.3684699979869,207.3986258806782L382.4315436867984,211.78910887550552L382.8257542418708,220.56653472538463L385.7271439272034,205.73245066984595L385.96367026024683,225.28175098990758L386.0109755268555,224.86759820548522L386.35788081531916,231.4361440123789L386.4524913485365,237.59859647543382L387.2093756142755,225.31802480366275L387.4459019473188,214.76779442000748L388.171249368652,214.04616741516276L388.39200727949253,211.50929639829803L388.56545992372435,208.73443387277652L389.43272314488354,218.41142583309272L389.6061757891154,228.65907127148498L389.70078632233276,219.78951967759045L390.6311232323035,232.28992911220797L391.0568706317817,237.200562889448L391.41954434244826,229.88540815437602L392.52333389665085,242.56610992672236L392.87023918511454,251.02159774697566L393.39059711781005,240.24302475890988L393.65866029525927,244.01812809137263L393.7690392506795,219.95347475079296L394.3997761387953,217.8282378542265L394.6047656274329,196.49336239919032L394.6836077384474,209.98821146292977L394.7782182716648,234.17881222618468L394.8255235382735,227.80935906038076L396.02392362569344,219.7158413656982L396.0396920478963,231.41276033496302L396.0712288923021,229.45950991715108L396.78080789143235,226.64281574407715L397.2696289797221,216.79410907552653L397.69537637920024,221.98698294454917L397.74268164580894,227.57113858291694L397.82152375682335,211.1327356599229L398.68878697798255,219.12089081604003L398.925313311026,213.33461170942414L399.06722911085205,224.25701424772322L399.0987659552578,203.77125364654532L399.87141864319966,214.0372224971073L400.7702187087646,214.19505444915504L401.4797977078949,228.69721145795407L402.1263030182136,227.7483473913344L402.3312925068512,241.18818306640648L402.34706092905407,244.07062679183173L402.69396621751775,244.1654933096858L402.7728083285323,246.1237785910967L402.94626097276404,237.39521099414162L404.69655583728536,238.12440681942164L405.0276927035461,233.90136865540515L406.09994541334294,230.06882871207907L406.1157138355459,233.5786618966642L406.1630191021546,233.3601588742791L406.17878752435746,245.0344290548255L406.9356717900964,238.89028545930222L407.3141139229658,243.40986305682452L407.8344718556614,249.80867418520864L408.2286824107337,250.93656370448483L409.3955456537479,228.30748643830543L410.02628254186374,231.14890083040123L410.15242991948685,233.31874893448042L410.65701942997947,223.99430376462934L410.8620089186171,227.73835447336447L411.8554195173994,229.31798288901746L412.88036696058754,227.60964224796325L413.24304067125416,247.80145775556562L414.5675881362973,243.08609558252692L414.614893402906,232.19591333104225L414.6937355139204,226.79576158792676L415.7502198015144,237.80921043419863L416.03405140116644,230.72723302681567L417.21668306638355,236.8441766466418L417.8316515322964,241.46630235397456L417.8474199544993,251.82311914994386L420.3230622403537,239.30547216017624L420.9853359728753,241.37421999877043L421.0011043950782,237.22020112456937L422.02605183826637,241.00371530730698L422.1206623714837,244.24861936969745L422.43603081554164,237.09201540561622L422.530641348759,240.8790422023846L422.86177821501974,234.77269108055435L422.9563887482371,229.26932481499543L423.88672565820787,241.87122687693866L424.8170625681787,245.2766802225389L425.3216520786713,252.42535242532415L425.4320310340915,238.2242493921441L428.80647338551097,238.89511682876983L429.2006839405833,225.49452417233158L429.40567342922094,228.7061536321946L429.8314208286991,243.33243429498984L429.9417997841193,231.55096432771742L430.1940945393656,238.41962095711233L430.32024191698883,246.02248315654018L430.54099982782935,234.5331315405398L430.9825156495104,227.50068976074274L432.07053678151004,224.94592749607136L432.11784204811875,232.72747777355727L432.7801157806403,237.55241324290728L433.3320105577416,236.85637109122334L433.9154421792487,230.47540601221894L435.35036859971217,240.90722356492293L435.60266335495845,224.56150562734686L437.27411610846525,221.68762877020984L437.3844950638855,224.22089744123787L437.57371613032024,234.15672445300413L438.37790566266784,244.62136374875394L438.5671267291026,233.4132114927585L439.98628472736306,223.6800955694497L440.03358999397176,228.08344871325704L442.35154805779723,215.77682262511664L442.4146217466088,215.4771573010732L442.43039016881175,225.30290388401016L442.698453346261,232.77071418697906L442.9349796793043,249.77734663292335L443.0926639013333,233.7132688093226L443.26611654556507,232.93747225631438L443.3449586565796,241.36261889862664L443.42380076759406,232.68575128992333L443.9599271224925,229.89469430078074L444.11761134452144,231.59748674984667L444.52759032179665,224.5950583047625L445.2371693209269,245.1090077991106L445.5998430315935,242.0688303996997L446.4040325639411,228.54654000635367L446.7824746968106,217.11572552932356L447.0820747186656,206.50371072524536L447.3028326295061,215.33827647448607L447.8231905622016,226.9985933955747L449.5892538489258,242.08806729434062L450.3619065368676,242.78670733678774L451.63914873530206,240.65328396921413L451.81260137953393,234.62278077136244L452.12796982359174,228.16798074390059L453.07407515576546,233.67268327769756L453.2790646444031,249.46845669030972L453.8624962659102,249.24305399904492L454.17786470996805,241.9700261529929L454.3513173541999,244.7833091687241L455.8650858856778,241.68700629057062L458.0884334162859,230.93460744492592L458.7034018821988,220.81481138163895L459.16068612608274,224.20024114925627L459.77565459199553,240.13641148040176L460.5325388577345,225.99838007761065L461.28942312347345,219.35242712333041L461.3209599678792,213.94321948419332L461.44710734550233,224.96237466187424L461.9201600115892,224.6767696460595L462.2670653000529,228.42503769645592L462.48782321089345,218.31615375000362L463.3866232764584,228.42687639101868L464.9003918079363,220.13491045788362L465.6099708070665,235.53089420904374L465.6730444958781,250.83111188844902L466.6191498280517,237.08060642254432L467.3444972493849,235.38331862424505L467.8175499154718,236.4027421678181L468.1644552039354,236.3307852023992L468.2906025815585,237.32275957202796L470.21435009031165,239.9796217077764L470.6874027563985,225.35484149436775L471.0343080448622,190.45418326087886L471.5546659775577,222.08743713974462L472.72152922057194,209.8595319611307L473.3364976864848,204.77333977404302L474.6925819959337,210.12709292758342L475.82790839454213,212.7082859753302L476.22211894961447,224.70454771598116L476.4271084382521,218.42815257568247L476.56902423807816,218.37539346479588L477.8147295921068,215.87971997494557L478.7450665020776,219.68773306874803L480.5426666332075,223.53594115737994L480.77919296625095,233.13365849012823L482.0248983202796,234.6968404227107L483.00254049685907,237.17001897447616L483.3967510519314,239.94726981306718L484.800140627989,243.13718541157033L485.3835722494961,241.60778569498845L485.93546702659745,235.40238751733406L486.45582495929295,218.56066951170936L487.1023302696116,237.8257640231131L488.78955144532137,236.30977204796912L489.04184620056765,245.52449123161952L489.3729830668284,228.30653412071393L489.51489886665445,226.36000499019983L489.76719362190073,236.20568620152937L490.76060422068315,236.54623721287084L490.776372642886,236.04801890308786L490.99713055372655,240.3047670106414L492.73165699604493,230.53697368982836L492.93664648468257,239.57048153455872L493.1100991289144,235.63049181629827L494.68694134920383,255.20587600372176L495.7434256367977,256.9407428658812L496.4056993693193,229.6729125930745L498.8971100773766,227.8933363515803L500.2216575424198,244.48576729687062L500.25319438682556,229.7438263157555L500.8681628527384,228.97594444491207L500.88393127494135,232.95072839346275L500.8996996971443,234.66990853106824L501.15199445239057,228.1515167595029L501.3569839410282,244.38404934084835L501.38852078543397,246.24275953400638L502.9495945835205,246.31841884673025L505.31485791395465,240.5579881954919L506.32403693493995,249.89391861981076L506.4186474681573,233.4092426346651L506.51325800137465,247.241077653151L506.5763316901863,246.35463527611572L506.5921001123891,242.89878802181127L507.77473177760623,242.87147727731508L508.40546866572197,251.7548248967812L509.27273188688116,240.16323101813717L510.99148990699666,237.38719272733712L511.16494255122853,255.41604271767108L511.29108992885165,262.30651207707285L512.0479741945907,265.05920984743017L512.4264163274601,269.16583455943464L513.0571532155759,254.2025150548073L513.1044584821846,254.08361721830227L513.5775111482714,253.0466875860804L513.7351953703003,240.94157822521197L513.8455743257206,253.33830964103632L514.1294059253727,254.627744637548L515.0282059909376,240.84431273324404L515.3435744349955,240.07545559237448L515.3908797016043,239.69549205186496L515.722016567865,250.8677962497472L517.0781008773139,249.11532076357284L518.5130272977773,246.9176679899951L518.544564142183,250.5697028070818L519.0491536526757,254.12876038781766L519.3329852523278,229.72492038876945L523.795448735747,237.53155037741595L524.2054277130222,231.66383647556384L524.8992382899496,227.9958395420862L525.7665015111088,229.97769943650593L526.7283752654853,229.48814269969617L526.933364754123,232.50913891072764L528.3840595967893,239.561114300368L528.8413438406732,238.42808346851405L529.456312306586,247.6416738746809L530.4812597497742,247.64111830973258L533.8714705233965,258.43560264784134L535.1171758774251,241.7012705113599L535.5271548547004,242.4913991854675L535.874060143164,249.3100540039982L536.173660165019,254.02552080458383L536.489028609077,255.74417528927887L536.5678707200914,237.31820360593474L536.8201654753377,243.61474043347874L537.0093865417725,252.54109555741024L537.2616812970188,245.1945139485847L537.6874286964969,259.21023548387393L538.7439129840909,244.30033922633572L539.5165656720327,230.43550613049788L539.7215551606703,242.56054364936608L539.8477025382934,245.328342152732L541.3457026475684,248.52998394610927L542.4810290461769,241.13723812368505L543.0013869788723,240.78580213114572L543.1117659342926,230.72931745516965L543.2536817341186,240.9960638280286L544.0421028442634,244.7982988721348L544.0894081108721,240.67807508412366L544.4205449771329,231.50442895854846L544.6097660435676,246.09704739299707L544.9093660654225,234.1482856063087L545.2089660872775,246.60502917548592L547.3534715068712,231.27321570053138L548.6307137053057,225.77671008307334L548.6464821275085,217.83030282907197L549.182608482407,237.35427846797063L549.482208504262,246.36212124625106L550.2075559255951,225.04178592099746L551.3428823242035,219.0336751258085L551.4217244352179,220.49948920543977L551.8159349902903,240.78484873760024L552.5412824116235,235.76833899250974L552.7778087446668,239.55625943747637L553.4873877437971,232.74060932350375L554.0708193653043,236.2900608492885L554.7488615200288,236.51112392363785L555.0642299640865,240.72924822944344L555.1588404973039,242.5612584985011L555.3638299859415,242.17459897937715L555.8053458076226,244.9230476909888L556.483387962347,239.4594404491243L558.1706091380568,227.1080081093249L558.5648196931292,226.44675421150083L558.6751986485494,233.17162669319043L558.738272337361,244.49642972944156L560.2993461354475,237.95998476150692L560.3466514020562,243.99616270179038L560.977388290172,241.79792379408522L562.4596199772441,244.41990092346157L562.6803778880845,237.1639345933904L562.9484410655339,232.4591244244124L562.9642094877366,236.65974613442432L563.6264832202583,239.22188757334618L565.1717885961419,246.20425670160714L565.59753599562,233.1775946993202L567.8997256372427,246.546247911947L568.735452013996,265.8697101684378L570.4384416119086,255.03778480023038L570.6118942561404,258.6574071967459L572.5514101870965,244.86306549217218L573.4817470970673,254.69242495013566L574.0651787185743,256.90398711109276L574.3963155848352,252.4254731158057L574.9797472063423,243.0917725300248L575.5474104056465,244.47865826781327L575.5631788278494,219.9421716280966L575.9573893829217,224.87996572739127L576.9350315595012,226.26519366708834L578.0388211137038,235.9861301899185L578.448800090979,248.89763071630958L578.7168632684281,254.84034379173724L579.0795369790948,249.49045115205777L579.8048844004279,242.13018225051115L580.8298318436161,240.3566712733411L580.9402107990363,223.85017211616707L581.0663581766595,230.726245345078L581.8232424423984,244.00905137581566L581.9651582422244,247.72694808895542L582.8954951521953,258.5615779928687L583.1004846408329,250.71618412518745L585.3869058602526,246.9269349738709L585.5761269266873,245.48768250739246L586.0964848593828,248.8538162021076L586.1280217037886,232.00296592762777L586.7587585919044,224.80892457054145L587.7837060350925,226.12782652996302L588.9505692781066,232.96457210441162L589.6916851216428,245.27404188623663L590.2435798987441,256.20729138626086L590.700864142628,259.0776574891168L591.1581483865119,249.01891039035044L591.3631378751496,226.8655544581634L591.4104431417583,201.74259247715423L592.4511590071493,225.7681634116545L592.4984642737579,242.43206531006913L593.1765064284824,245.9563535413874L593.7914748943953,246.03250061256148L593.9491591164242,243.33590299960792L594.8321907597863,235.20189841611403L596.9136224905684,235.3935458246755L597.0240014459887,247.07496554103523L597.0397698681916,253.00478859964107L597.1501488236117,241.11965126870854L598.1750962667999,231.8300153333062L598.616612088481,222.0752329920997L598.8058331549157,239.9424562688504L599.0108226435534,241.48892530534562L599.1212015989736,244.3334683225628L600.9188017301036,254.51351637369152L600.9818754189151,253.8726418351637L601.4076228183933,258.3083355674144L601.439159662799,246.89286743271026L602.4956439503931,247.22328775446206L602.8425492388567,248.0147719303273L603.9463387930592,259.11210734265944L604.1040230150883,256.64719435896626L604.3720861925375,251.96478955576436L604.4824651479577,252.9970136934158L604.5297704145664,259.02036732735127L604.7505283254069,247.37531305615457L604.9239809696387,241.38994285618614L607.0684863892324,245.96564387500868L607.6519180107395,230.48949681128477L608.5191812318986,238.79592007236457L608.6295601873189,243.74045265403666L609.654507630507,249.49963574828504L610.0487181855794,253.28605135956573L610.1906339854055,260.47236818371255L610.3798550518402,258.8488521258564L610.6794550736952,239.30540838747137L610.9475182511444,259.0750239718772L611.1840445841877,244.18870786334338L611.7990130501007,254.23727699145587L611.9882341165355,260.65568351087666L612.3824446716078,264.26127352337744L612.8554973376946,238.95656364216543L612.9658762931149,244.54613840319354L613.8804447808827,259.0587257445783L614.605792202216,265.0998387867667L614.905392224071,245.432199934851L615.0157711794911,247.29776649191638L615.7253501786214,248.7305452453936L616.5453081331719,236.15674692931867L616.5926133997806,214.0631624632584L617.1445081768819,222.04690738715337L618.2167608866788,232.51137613425772L618.6109714417511,236.21051850555935L619.1470977966495,245.27077114267223L619.1944030632582,241.78415627873366L620.0143610178087,240.53919570855874L620.0301294400116,233.4240420599798L620.3612663062723,220.83789244792627L621.2285295274315,245.88494247849596L621.6542769269098,237.59083301275757L622.6003822590834,228.21023566330334L622.6161506812863,229.79854533009035L623.0261296585616,231.500571023428L623.2153507249963,218.09476740335603L623.4518770580397,239.15654584056512L623.7672455020976,248.09199453267018L623.9091613019236,251.09763445719793L624.0510771017497,243.5060424409471L624.5241297678365,238.38260543499507L625.2967824557784,241.4591708787849L626.1640456769376,247.05645096816016L626.6686351874301,250.80004202648354L627.0155404758939,215.7608815132432L628.1508668745022,226.2361862207913L629.380803806328,233.64544906828885L630.5476670493422,239.06851728114776L631.320319737284,233.501474538262L631.8879829365883,249.32059557999358L632.8656251131677,240.85123317112766L634.0797936227905,243.60870022906914L634.1270988893992,256.48283435788045L635.3254989768192,245.95698999678515L635.6566358430799,240.0396063651549L635.7827832207031,236.4454514886361L635.9877727093408,243.3203394977377L636.0193095537466,254.18965767439298L636.1139200869638,257.1666488774466L637.1230991079491,255.080405420293L637.6592254628475,245.2774816512321L637.6907623072533,235.37300490881512L637.7065307294563,248.47437175466519L639.0626150389052,248.7369340594967L639.1099203055138,249.06291268713855L639.5356677049921,234.43504381475057L642.2162994794841,238.68415659178928L642.3266784349044,239.25056561798294L642.9101100564114,247.8767036300987L643.3673943002954,249.35126682011634L643.4462364113099,241.21948970155765L644.1085101438314,230.37968559099556L645.0861523204109,249.5225847906714L645.3542154978601,255.69856364637474L645.369983920063,254.92953167790478L646.410699785454,256.7722274367061L646.5368471630771,239.85733116451712L646.7260682295118,234.24080537886974L647.3094998510189,244.02484537864598L647.3252682732218,235.16780358264126L647.3725735398306,240.55337836468595L648.4132894052216,249.2175532666818L649.233247359772,256.3393665661837L649.4697736928155,253.0775100633324L649.7063000258589,245.8976303274255L649.9585947811053,247.08662139200504L650.1635842697428,246.74246452271296L650.7154790468442,225.43692718610242L651.0150790686992,227.90945182675387L651.1254580241194,225.6502516892548L654.7837319751909,223.0130717121371L655.7298373073646,231.64692117927703L656.2028899734514,231.86199744770198L656.5024899953064,245.19677814071972L657.905879571364,250.92760527816404L658.5208480372769,253.73356537080116L658.5839217260885,243.00891762234158L658.7258375259145,239.35603874443916L658.8204480591319,247.91712973413507L659.2146586142043,244.44774460515586L660.1134586797692,227.0954206685884L660.7915008344937,241.9923375272317L662.4156483213918,241.99179272775564L663.3775220757684,233.117580457574L664.2447852969276,241.28625866073958L664.765143229623,247.48108603794813L665.3485748511301,259.9482616934286L666.4681328275357,260.16712146096523L666.5627433607531,271.7519645328797L666.704659160579,245.46307816818938L667.5561539595354,251.78248675277092L668.7387856247525,259.38879743882205L668.8964698467814,239.0889815864382L669.2749119796509,250.5878833874382L669.3695225128682,242.88421155436026L670.4102383782592,239.85180631617803L671.797859532114,225.5892555826642L672.3497543092153,228.08482384558187L673.3116280635919,240.56943952100605L673.6112280854469,247.765346128219L674.2892702401714,244.26164391714235L675.377291372171,249.85785224936933L676.4022388153592,244.06694747912053L676.7491441038228,242.29767889144412L678.7675021457933,234.17563568072023L79.56745843580526,238.44840537493326" fill="none"></path></g></g></g></g><g opacity="0.2"><g><g><g><path style="fill: none;" stroke="rgb(255, 112, 67)" stroke-width="2px" d="M86.33211156084697,-131.62661740709035L87.30975373742642,7.973054274361573L87.98779589215088,-176.13030656625176L91.50415404339633,-20.899577932105785L91.5987645766137,48.06290564766124L92.02451197609184,10.915991052750655L93.74326999620736,11.990570769580131L94.15324897348259,-20.764747402960438L95.65124908275757,-25.78714850751743L96.25044912646757,26.31902244949748L97.44884921388754,-9.262764508008047L98.72609141232198,49.396046373098216L99.59335463348118,90.14626817430252L99.64065990008986,-22.966415435957458L99.86141781093038,-23.416276929069454L99.92449149974195,10.489216837697427L100.6813757654809,-39.34303260306598L100.79175472090115,45.12475550779732L101.4855652978285,29.487797785197245L101.95861796391534,74.5925401922645L102.85741802948033,-46.770492613813076L103.31470227336426,33.458149385293154L103.56699702861057,84.18574781500752L103.81929178385688,17.835510314143278L104.68655500501606,-6.8885917995427235L105.4907445373637,90.14168785640351L105.77457613701579,66.31805148319523L105.91649193684184,2.9063148672592547L106.16878669208815,50.10310715868553L106.21609195869684,85.67239108625046L106.90990253562418,36.06199821471432L107.90331313440653,91.67700216333947L108.25021842287022,76.79422885732419L108.2975236894789,-1.1010093890307076L108.42367106710205,67.69251823003674L109.05440795521784,120.21989274520058L109.32247113266703,94.82070954297018L109.52746062130466,97.37625871382528L110.93085019736226,72.49603378238203L111.87695552953593,74.3998367275027L113.31188194999932,103.73442081577059L113.50110301643404,114.1384684990208L114.00569252692668,130.97522192642023L114.10030306014404,110.18218796562383L114.41567150420192,53.716977981034745L114.4945136152164,140.23363306921794L115.20409261434665,121.93144613093693L115.39331368078139,14.310047880070726L115.94520845788269,120.37203357487442L116.497103234984,139.8328758851138L116.5128716571869,147.8978253663329L117.22245065631715,93.74532517569895L117.49051383376634,168.06180837026406L117.52205067817214,133.92488475721956L117.60089278918662,101.38694599632038L117.99510334425898,130.4020013309731L118.01087176646186,108.07066141416249L118.20009283289659,100.9440787724327L118.27893494391107,76.74691953776329L118.736219187795,143.23149239827035L118.97274552083842,160.11496713144635L119.0673560540558,113.32059290516418L121.14878778483784,185.80684708986982L122.01605100599704,157.01146132580797L122.78870369393887,191.49514801511057L124.47592486964858,209.43740862118935L125.59548284605407,164.19339979151593L126.71504082245959,164.27891969102743L126.76234608906826,214.46555575518278L127.67691457683614,137.05734766272872L128.6545567534156,191.598741601467L129.7425778854153,151.67909442865474L129.94756737405294,222.81098781153077L129.97910421845873,178.25181903601552L129.9948726406616,215.13344656990822L130.9094411284295,157.10042677977506L133.66891501393602,207.66022464429594L135.56112567828333,181.46943046390922L135.84495727793546,203.83154310210014L135.87649412234123,161.40640014232062L136.66491523248595,134.7952070542266L137.54794687584806,191.62222088871525L137.78447320889148,201.4270722096945L138.60443116344197,187.10961741914738L138.93556802970275,169.0626284632687L139.045946985123,145.84821563475916L140.73316816083272,203.73150854654367L141.17468398251376,166.47146835235165L141.61619980419482,228.17941955412334L142.43615775874534,166.27517490869604L143.39803151312188,174.20339571100973L144.94333688900554,170.66620394934438L145.43215797729528,225.54043432208016L145.51100008830974,194.78579694463775L146.64632648691813,220.10031647795495L146.85131597555576,208.64975899905386L146.88285281996153,153.01841445684295L148.16009501839602,227.47623759630636L149.61078986106227,217.91346226591062L149.8788530385115,143.7041316885019L150.20998990477227,174.97527212128114L151.75529528065593,161.1728039294691L152.32295847996014,176.82433820430194L152.38603216877172,185.88283497645628L152.51217954639486,195.6006602573536L153.67904278940904,208.48309319730382L154.27824283311904,131.7517302347472L154.49900074395956,189.40343855978455L155.09820078766955,225.30752928332606L155.28742185410428,156.9860013605493L155.93392716442295,208.17893533033185L157.00617987421978,202.17212693857505L157.14809567404583,199.87011486908236L157.1954009406545,209.63643581314057L158.39380102807448,186.95550622749445L158.42533787248027,221.2982449810883L159.27683267143658,218.5948464495819L159.71834849311762,157.7330470834716L161.37403282442153,131.17626074447574L162.79319082268202,169.22058753459808L163.04548557792833,179.5104058032173L163.26624348876885,189.09522649251008L164.22811724314542,203.027047400845L165.75765419682617,235.18811059010915L166.2622437073188,219.1597832718918L168.07561226065167,214.3595379014699L168.29637017149216,185.03123627626633L168.99018074841953,196.65156468234L170.33049663566555,210.7375793105782L170.59855981311478,208.48878764658372L170.64586507972345,208.48829247708113L171.21352827902763,217.53433779945132L171.3239072344479,215.769739380749L171.89157043375212,201.8064545769364L172.22270730001287,204.1000384488536L173.20034947659235,230.29407186306983L173.51571792065022,212.20957381736926L175.2660127851715,219.69600026305088L175.42369700720047,215.6473499853564L176.51171813920018,231.23727692124078L176.71670762783782,220.77048713559861L176.81131816105517,241.31791186508985L177.0163076496928,176.78700448701215L177.91510771525776,216.72481819095105L178.27778142592433,201.533688393223L178.35662353693883,195.78519342532246L179.28696044690957,201.79377617446357L179.66540257977903,174.1275109847363L181.5418448219235,206.9935408052331L182.3933396208798,203.95912146123874L182.85062386476375,238.93272163519168L183.70211866372003,165.18763825654852L184.3170871296329,215.84229202891117L184.3643923962416,205.30030869109297L184.5536134626763,204.55753380513062L185.04243455096605,205.05668529581385L186.68235046006706,204.0738047812471L186.80849783769023,190.37435247803847L187.04502417073365,141.0864593771331L188.57456112441443,208.409230413166L188.98454010168965,164.0437038612612L189.33144539015333,221.51667662792264L190.78214023281961,224.93968023908224L190.90828761044276,215.1661071250172L191.55479292076146,208.0913625405908L193.00548776342774,221.4648179385566L193.99889836221007,207.92262321654863L194.44041418389114,181.5980610582408L194.45618260609402,223.3945863344699L194.75578262794903,148.64683113520297L195.11845633861557,199.20054254125435L195.41805636047056,216.82372829909536L196.1907090484124,248.97646645109708L196.34839327044136,199.51618215106782L196.39569853705004,185.73087983534595L196.63222487009344,234.27197479808035L197.15258280278897,219.7470852500691L199.92782511049836,215.52178325232214L200.02243564371577,195.53410122337914L201.07891993130968,179.89726729315473L201.5204357529907,194.52299604716418L201.67811997501965,213.35289956680967L202.23001475212095,151.02364474768214L203.2864990397149,212.72966685159994L203.79108855020752,220.09889286563498L204.7214254601783,204.99049763896636L205.2733202372796,214.808997069361L205.90405712539535,213.10469585363148L207.68588883432244,153.57886380553552L208.23778361142374,171.1026133376357L208.33239414464114,160.76697125796332L209.42041527664085,214.67411496005906L210.11422585356817,164.92503336366977L210.57151009745212,221.22432030076266L210.6503522084666,203.50960039715983L210.79226800829264,230.07095673802337L212.21142600655313,194.8614650342538L212.2587312731618,218.37787967919274L212.70024709484287,200.37600272820723L212.85793131687183,213.94754655927554L213.7724998046397,188.2431223067862L214.324394581741,234.28023793915497L214.8605209366394,155.83749696339422L215.80662626881306,217.61812460570374L217.76191062197196,217.10797622565025L217.80921588858064,214.48004977916514L218.69224753194274,218.50925433785125L219.10222650921799,229.13979048838442L219.14953177582666,215.47576343667427L219.46490021988458,226.45571388351073L219.57527917530484,200.39535560293385L220.4898476630727,193.7129503210674L220.5844581962901,225.07471708885373L221.46748983965216,210.5621036180944L224.1638900363471,215.3729745007596L224.27426899176737,221.64749422089074L224.70001639124553,219.39986826843358L225.5830480346076,204.99945195413835L226.08763754510022,226.35614354936294L227.0968165660855,188.3430227539357L227.14412183269417,198.02544341539715L227.45949027675204,203.11564147768513L227.97984820944757,253.61187195730975L229.22555356347624,224.5815695283895L229.33593251889647,201.43241591391006L229.5409220075341,217.7528519745361L230.4870273397078,220.83179530963923L230.9600800057946,206.88368538787506L231.3227537164612,212.5473825784554L231.6065853161133,240.6449300889158L232.694606448113,217.79481758988143L233.8772381133301,205.7079776161709L234.8864171343153,181.0492172447654L235.91136457750346,204.04039115585292L237.26744888695237,234.15947847670844L237.67742786422764,208.73313316405412L239.00197532927078,201.715477496865L240.70496492718334,228.2454937346265L240.81534388260363,193.2600146506268L242.5971755915307,204.72438529544414L242.6444808581394,217.30717879013366L242.97561772440017,208.93836029081913L243.90595463437094,208.7541366037894L244.06363885639988,215.53711287484012L244.12671254521143,228.3654485466313L244.58399678909538,201.70056051559916L245.90854425413852,218.67991244371603L246.1766074315877,200.61912063795242L246.39736534242826,239.78608953475032L246.64966009767457,212.15271185282072L246.91772327512376,209.87957435494837L247.54846016323953,216.42010325828866L248.2738075845727,229.51771829521243L248.28957600677558,230.55653233151034L248.63648129523926,207.5178737283298L249.18837607234056,189.92346969782741L249.5983550496158,206.06617085511402L249.74027084944188,210.97435286107137L249.9610287602824,219.18149851778705L250.56022880399237,225.30314497002178L250.60753407060105,213.12460579404853L251.14366042549946,224.32372032594193L251.20673411431108,197.68940901169532L251.56940782497762,218.05874293476717L251.664018358195,245.81488138921628L251.69555520260076,197.8682477303843L252.32629209071658,224.3622300708004L252.42090262393393,248.94791167644715L252.62589211257156,226.6167471321687L252.70473422358603,223.74093676947587L253.71391324457127,228.7712915341684L254.01351326642626,200.49365706523122L254.1554290662523,240.225665944652L254.86500806538254,220.84569100380597L255.22768177604914,224.5763702486122L255.25921862045493,243.22125574681752L255.2749870426578,231.3736239069879L256.2053239526286,170.39449000082402L258.6967346606859,185.81190194520886L259.5324610374393,245.95201239334253L259.84782948149723,206.14741991766564L260.3366505697869,196.63020018150905L260.47856636961296,222.44592409573903L260.7466295470622,193.6399128194339L261.01469272451135,257.366463762679L261.5035138128011,225.44228760025234L262.3077033451487,211.89530623971925L262.67037705581527,250.88845516705763L262.8911349666558,202.46125434793683L264.05799820967,209.52964425707987L265.85559834079993,218.05752564307326L267.36936687227785,227.06668083749977L267.44820898329226,217.14414423140266L268.0158721825965,219.66424751869667L268.50469327088626,192.81095780795658L270.03423022456695,242.4792855112969L79.06286892531264,215.2887853692863L270.49151446845093,214.37183461078448L270.7438092236972,223.39101698763864L271.4060829562188,165.0252020276332L272.415261977204,255.37081719085737L272.4625672438127,196.29119476079165L272.71486199905905,235.74205052304882L274.2286305305369,220.34345501976279L275.06435690729035,190.7659593423758L276.5623570165653,175.4693274925001L278.4230308365068,234.1705269462352L278.86454665818786,264.23861180832296L279.79488356815864,215.2954392094775L280.53599941169466,186.52202659209354L281.6713258103031,222.29476328903914L281.97092583215806,157.77162904054916L282.6489679868825,227.93949961408242L282.9643364309404,203.58777528238278L283.8631364965054,240.82395449616826L284.1311996739546,199.397413682663L284.55694707343275,252.6296980908873L284.88808393969356,266.0767841622866L285.07730500612826,180.00234638801896L285.3138313391717,260.651897938382L285.3769050279833,167.77227863568137L285.64496820543246,211.29130260686048L286.21263140473667,215.97327467838014L286.84336829285246,182.9462941374758L287.36372622554796,218.57985725609694L289.09825266786635,219.37323227560623L289.9339790446198,239.56270103487432L289.9970527334313,235.55134836836007L290.3124211774892,222.2364364480454L291.085073865431,203.84021888442695L291.542358109315,208.38090259120477L292.20463184183654,180.37895374284003L293.00882137418415,202.64372430964488L293.3714950848507,196.82836082683073L294.3018319948215,229.27441469690373L294.3491372614302,209.97697832252229L295.3740847046183,241.3604603362039L295.8313689485023,257.79180404938097L296.35172688119775,234.37803391591845L296.9036216582991,217.58894055314425L297.26629536896564,215.84148737846945L297.518590124212,184.69354099152451L298.6696849450233,223.78643046752723L298.96928496687826,241.50012908403093L299.31619025534195,238.4756647102451L300.6092008759793,238.16262474032027L302.83254840658736,224.3898048224764L303.8732642719784,181.71733501217957L303.98364322739866,231.17208991942977L304.1255590272247,234.34583758221814L304.39362220467393,235.69331759116793L304.5828432711087,213.3993629718036L304.67745380432603,233.23599767039107L305.6077907142968,198.9496153958119L306.39621182444154,239.67262350643583L307.13732766797756,247.66645426784402L307.70499086728177,230.49183018317063L308.0834330001512,215.45393471443467L308.1307382667599,219.69692870586826L309.2976015097741,207.47789910702616L309.39221204299145,240.155171344735L309.8652647090783,190.40014255629887L310.00718050890436,244.89902928804833L310.07025419771594,207.4086166407874L310.1648647309333,228.43735128482132L311.6155595735996,240.7606037479294L311.6313279958025,255.15337588302822L311.7574753734256,189.23103704462937L311.8205490622372,250.89804391815483L312.0886122396864,190.77242749400352L313.09779126067167,236.75633303690543L313.39739128252666,220.62908529451244L313.93351763742504,217.87983200385906L315.5261282799174,244.7032774360362L316.51953887869973,227.09308987763845L317.2448863000329,235.8890127050079L317.93869687696025,198.14242721038636L318.23829689881524,249.42963939025765L319.2947811864091,203.80386519011108L320.209349674177,231.76503476673045L320.5720233848436,225.69083174246356L322.54307616020543,227.55260717605108L322.5746130046112,228.33608912153966L323.0792025151038,226.50831532713065L323.56802360339356,223.00652818490119L324.49836051336433,224.74798774538826L326.7532448883782,229.96558879428267L327.13168702124767,201.02404549870346L327.2736028210737,246.07779576303417L327.36821335429113,230.8835195757584L328.09356077562427,196.17529414908938L328.1408660422329,214.3208321520167L328.4404660640879,237.7088431553127L330.52189779487,176.19391521527322L330.7426557057105,216.10661969901776L332.35103477040576,198.24901244582097L332.68217163666657,183.89566818236665L334.76360336744864,230.34858177248103L335.898929766057,199.39953878511164L336.2458350545207,252.1649608806348L336.5138982319699,190.71482277520107L337.23924565330304,239.78915339604765L337.77537200820143,221.94964046175835L338.80031945138956,222.27214023238912L339.65181425034586,255.13137178825644L340.0617932276211,214.2291845299105L340.1406353386356,218.58801723685855L341.2601933150411,234.5553768100683L341.8278565143453,263.3906804572616L342.6005092022871,182.2266993738539L343.5781513788666,172.7611939026251L343.5939198010695,201.51413951390163L344.1300461559679,223.281615475658L344.3508040668084,225.70144693867553L345.01307779932995,252.99265217827735L347.63063588501046,193.82901598927054L348.11945697330015,222.94394082297882L348.6555833281986,192.5726265367365L349.61745708257513,237.24968691799572L349.77514130460406,212.95492771115767L350.3585729261112,198.54865189108168L350.4847203037343,227.70398461940837L350.87893085880665,214.51719780789142L351.1627624584588,233.79296020050285L351.1942993028646,229.57177429924624L351.55697301353115,227.25189486353474L351.57274143573403,226.24290447373713L351.5885098579369,215.99119362475548L351.6358151245457,189.61193586847298L351.93541514640066,196.21605278877215L352.4873099235019,208.23513706887695L352.97613101179167,230.387617634936L353.5910994777045,238.1138350702672L353.7487836997335,243.30632174095163L355.1521732757911,240.0728803630217L355.37293118663155,236.58706759526672L355.8302154305155,223.60316617140876L355.9405943859358,203.62327274610038L355.9563628081387,223.4853983580404L356.41364705202267,244.80359052443788L356.5713312740516,230.1187405950243L356.8866997181095,261.0987626244L357.9747208501092,189.27293044775558L358.747373538051,241.77016667746437L359.2677314707466,246.77384934322L359.8511630922536,206.44895751268632L361.60145795677494,218.1396412522544L361.99566851184727,196.57523636672047L362.042973778456,223.00515615273773L362.184889578282,263.82859598612333L362.626405399963,216.87247154700754L363.17830017706433,167.75956928511468L363.3675212434991,203.45879394298683L364.3767002644843,210.85564628885436L364.6447634419335,242.18339078539955L365.7170161517303,200.5890390906695L366.063921440194,225.9955260430633L366.5054372618751,218.2216743331851L367.35693206083135,221.19972688213352L369.45413221381637,238.70403069522536L369.4699006360192,243.7341378751666L370.96790074529423,225.19580666430198L371.6774797444245,198.69361276296777L373.56969040877175,210.4739221825064L373.68006936419204,236.41942177054278L375.6511221395538,225.4053252600895L376.4080064052927,224.45531162125783L377.4329538484809,243.35933582582373L377.7325538703359,227.46822203998303L377.8113959813504,229.17480309863072L378.17406969201693,217.17926000196204L378.5209749804807,211.5460466838855L378.8521118467414,215.23959853202805L379.92436455653825,232.51269945153098L380.7600909332916,232.99923443592922L381.67465942105946,207.25531009957623L382.3684699979869,192.31546850838632L382.4315436867984,217.53830947150342L382.8257542418708,232.0603002147182L385.7271439272034,186.30768009365562L385.96367026024683,250.88095025428385L386.0109755268555,224.32527804666887L386.35788081531916,240.03744995350758L386.4524913485365,245.66813584391457L387.2093756142755,209.23699908104336L387.4459019473188,200.9525966658908L388.171249368652,213.101219351082L388.39200727949253,208.18734289584475L388.56545992372435,205.10083790979567L389.43272314488354,231.08314509752526L389.6061757891154,242.07804347372144L389.70078632233276,208.17511839874933L390.6311232323035,248.6588255312106L391.0568706317817,243.6308847178432L391.41954434244826,220.30644109944342L392.52333389665085,259.17109354085716L392.87023918511454,262.0937954238431L393.39059711781005,226.12881948354442L393.65866029525927,248.96150820570602L393.7690392506795,188.44156148495307L394.3997761387953,215.04530639844546L394.6047656274329,168.55600816592127L394.6836077384474,227.65929557179874L394.7782182716648,265.85564971525054L394.8255235382735,219.46875872548276L396.02392362569344,209.11763228282288L396.0396920478963,246.72951104067468L396.0712288923021,226.90178939313404L396.78080789143235,222.95444254284644L397.2696289797221,203.89753475435288L397.69537637920024,228.7868893735003L397.74268164580894,234.8834162895094L397.82152375682335,189.60715954597916L398.68878697798255,229.5811309396391L398.925313311026,205.75765962293173L399.06722911085205,238.5595598348262L399.0987659552578,176.94578884084584L399.87141864319966,227.48018863629588L400.7702187087646,214.40173046950395L401.4797977078949,247.68733391520365L402.1263030182136,226.50583947961763L402.3312925068512,258.7872288580136L402.34706092905407,247.8450969819382L402.69396621751775,244.2897180570836L402.7728083285323,248.6880921120205L402.94626097276404,225.96542386371777L404.69655583728536,239.07926601788296L405.0276927035461,228.37143184478774L406.09994541334294,225.05023714656892L406.1157138355459,238.17467902289917L406.1630191021546,233.0740359789157L406.17878752435746,260.3215218778505L406.9356717900964,230.84472098202346L407.3141139229658,249.32810901016208L407.8344718556614,258.1877178567878L408.2286824107337,252.41349986483033L409.3955456537479,198.67541528374724L410.02628254186374,234.86964438771835L410.15242991948685,236.16009737561873L410.65701942997947,211.7842335306673L410.8620089186171,232.64107214508L411.8554195173994,231.38645704993027L412.88036696058754,225.37262344085534L413.24304067125416,274.2420106257978L414.5675881362973,236.91147583168873L414.614893402906,217.93555920496414L414.6937355139204,219.72443124532515L415.7502198015144,252.23097832296577L416.03405140116644,221.453604412529L417.21668306638355,244.85412360378132L417.8316515322964,247.51883185988143L417.8474199544993,265.3850478412016L420.3230622403537,222.91400370013412L420.9853359728753,244.08318079434295L421.0011043950782,231.78064292209365L422.02605183826637,245.9581091678433L422.1206623714837,248.4977200703335L422.43603081554164,227.7206656420272L422.530641348759,245.8380357214785L422.86177821501974,226.77661466928933L422.9563887482371,222.06283827325893L423.88672565820787,258.3730247271045L424.8170625681787,249.73601520396L425.3216520786713,261.7863157947912L425.4320310340915,219.62834772975816L428.80647338551097,239.773596820841L429.2006839405833,207.94686589011343L429.40567342922094,232.9116822782508L429.8314208286991,262.4850928072413L429.9417997841193,216.12349672623137L430.1940945393656,247.41391266350246L430.32024191698883,255.97819416595257L430.54099982782935,219.48818381242853L430.9825156495104,218.29192650636645L432.07053678151004,221.60054596242549L432.11784204811875,242.91717525008036L432.7801157806403,243.87051580900763L433.3320105577416,235.94492559467648L433.9154421792487,222.1197311859014L435.35036859971217,254.56736340876392L435.60266335495845,203.15729761209133L437.27411610846525,217.92437662703043L437.3844950638855,227.53813378413133L437.57371613032024,247.16738014739553L438.37790566266784,258.3244826418028L438.5671267291026,218.73648555938806L439.98628472736306,210.93488372530166L440.03358999397176,233.84950236808095L442.35154805779723,199.66167945658177L442.4146217466088,215.08475490215255L442.43039016881175,238.16941268891838L442.698453346261,242.54957894860345L442.9349796793043,272.04700159100753L443.0926639013333,212.67785974239044L443.26611654556507,231.9215908578024L443.3449586565796,252.3950857489524L443.42380076759406,221.32366368222173L443.9599271224925,226.23989219259633L444.11761134452144,233.82724037252657L444.52759032179665,215.4255965764421L445.2371693209269,271.97138508154796L445.5998430315935,238.08781288130245L446.4040325639411,210.839522331926L446.7824746968106,202.1474303596329L447.0820747186656,192.60760819888893L447.3028326295061,226.9068648805357L447.8231905622016,242.26741486037199L449.5892538489258,261.8472629077362L450.3619065368676,243.70155469029237L451.63914873530206,237.85963258488567L451.81260137953393,226.7260248517737L452.12796982359174,219.7156213545914L453.07407515576546,240.88091962102985L453.2790646444031,270.1525294962014L453.8624962659102,248.94789620240022L454.17786470996805,232.44622294580697L454.3513173541999,248.46721556576705L455.8650858856778,237.6324942076306L458.0884334162859,216.85467639300782L458.7034018821988,207.56325395003682L459.16068612608274,228.63335587960043L459.77565459199553,261.0043296738417L460.5325388577345,207.48506874878257L461.28942312347345,210.64975893608587L461.3209599678792,206.8600307280946L461.44710734550233,239.39161481371042L461.9201600115892,224.30277878239448L462.2670653000529,233.33327784558932L462.48782321089345,205.0788853951804L463.3866232764584,241.66655245904533L464.9003918079363,209.27683959394002L465.6099708070665,255.69145491783772L465.6730444958781,270.8662699120582L466.6191498280517,219.07474822585158L467.3444972493849,233.1607731701211L467.8175499154718,237.73764551471393L468.1644552039354,236.2365597996452L468.2906025815585,238.6217190814494L470.21435009031165,243.45869983934543L470.6874027563985,206.20414777380722L471.0343080448622,144.7528594308831L471.5546659775577,263.510196837936L472.72152922057194,193.84747136927368L473.3364976864848,198.11312968148252L474.6925819959337,217.13766576374363L475.82790839454213,216.08827779535895L476.22211894961447,240.41327844796518L476.4271084382521,210.20940882383638L476.56902423807816,218.30630705400446L477.8147295921068,212.61171334966815L478.7450665020776,224.67420748950087L480.5426666332075,228.5750496706693L480.77919296625095,245.70157010137135L482.0248983202796,236.74377842680826L483.00254049685907,240.40856917967483L483.3967510519314,243.58399319755014L484.800140627989,247.31428043316683L485.3835722494961,239.60508444948746L485.93546702659745,227.2766120745395L486.45582495929295,196.50696487154954L487.1023302696116,263.052804641972L488.78955144532137,234.3246278218568L489.04184620056765,257.5908787076698L489.3729830668284,205.76015610250735L489.51489886665445,223.81108578234418L489.76719362190073,249.09829878079924L490.76060422068315,236.9921781445812L490.776372642886,235.3956175597924L490.99713055372655,245.87884594131776L492.73165699604493,217.74635287481448L492.93664648468257,251.39957841206933L493.1100991289144,230.47119812056232L494.68694134920383,280.83923127917006L495.7434256367977,259.21249693249644L496.4056993693193,193.96653900258633L498.8971100773766,225.5630367466676L500.2216575424198,266.21303830375194L500.25319438682556,210.43971422270184L500.8681628527384,227.97042707593232L500.88393127494135,238.15558404895518L500.8996996971443,236.92112132095812L501.15199445239057,219.61588596394276L501.3569839410282,265.6400446609935L501.38852078543397,248.6766825813981L502.9495945835205,246.41749235784897L505.31485791395465,233.01488385541762L506.32403693493995,262.1190284364131L506.4186474681573,211.8230733885275L506.51325800137465,265.3534343632699L506.5763316901863,245.19386662073697L506.5921001123891,238.37346378811475L507.77473177760623,242.83571470888702L508.40546866572197,263.3872916409782L509.27273188688116,224.98440023478577L510.99148990699666,233.75205713638184L511.16494255122853,279.02425967960954L511.29108992885165,271.32936687333336L512.0479741945907,268.6637817545724L512.4264163274601,274.5433315841611L513.0571532155759,234.60851468731607L513.1044584821846,253.92792420837537L513.5775111482714,251.6888605619007L513.7351953703003,225.0903149281856L513.8455743257206,269.57144292688486L514.1294059253727,256.3162195636961L515.0282059909376,222.79533839204237L515.3435744349955,239.0686611377023L515.3908797016043,239.19794164200607L515.722016567865,265.497580268683L517.0781008773139,246.82050875280873L518.5130272977773,244.03991020103763L518.544564142183,255.35192853753944L519.0491536526757,258.78923532610224L519.3329852523278,197.76885276876868L523.795448735747,247.75408895377288L524.2054277130222,223.98024806366982L524.8992382899496,223.1927119178787L525.7665015111088,232.57288317815946L526.7283752654853,228.8470834161601L526.933364754123,236.46503926096977L528.3840595967893,248.79545620781857L528.8413438406732,236.94441491964292L529.456312306586,259.7065832518093L530.4812597497742,247.64039081475403L533.8714705233965,272.5706433400068L535.1171758774251,219.7881843187849L535.5271548547004,243.52604804971466L535.874060143164,258.2388698980095L536.173660165019,260.20027756193264L536.489028609077,257.99469975307125L536.5678707200914,213.18996816839172L536.8201654753377,251.8598590967985L537.0093865417725,264.22987928782396L537.2616812970188,235.57439438229355L537.6874286964969,277.5633858545644L538.7439129840909,224.77629493528687L539.5165656720327,212.27993946689497L539.7215551606703,258.43790224797635L539.8477025382934,248.95268799894097L541.3457026475684,252.7224340542961L542.4810290461769,231.4566679589864L543.0013869788723,240.32560765592675L543.1117659342926,217.56066431133954L543.2536817341186,254.4400481084236L544.0421028442634,249.77720711695753L544.0894081108721,235.28277049335617L544.4205449771329,219.49182537147888L544.6097660435676,265.20562626674393L544.9093660654225,218.50175458309312L545.2089660872775,262.9167465051014L547.3534715068712,211.1966839677387L548.6307137053057,218.5792073461248L548.6464821275085,207.4247302816845L549.182608482407,262.9203158519326L549.482208504262,258.1576105194266L550.2075559255951,197.12347153434894L551.3428823242035,211.16624135936013L551.4217244352179,222.41892704181603L551.8159349902903,267.34789459149164L552.5412824116235,229.19937588519724L552.7778087446668,244.51642316102388L553.4873877437971,223.81572799643104L554.0708193653043,240.93795695811056L554.7488615200288,236.8005991272316L555.0642299640865,246.25275049593714L555.1588404973039,244.960218827729L555.3638299859415,241.6682803942888L555.8053458076226,248.52205558818L556.483387962347,232.30501710931557L558.1706091380568,210.93419255120426L558.5648196931292,225.58086284876117L558.6751986485494,241.97763754103804L558.738272337361,259.3259062226387L560.2993461354475,229.4007138681606L560.3466514020562,251.90034951966732L560.977388290172,238.91939848076234L562.4596199772441,247.85329822682502L562.6803778880845,227.66247290944042L562.9484410655339,226.29832219390312L562.9642094877366,242.1603292974191L563.6264832202583,242.57693190560644L565.1717885961419,255.34745137995344L565.59753599562,216.11958695036708L567.8997256372427,264.0520824882967L568.735452013996,291.17318152970853L570.4384416119086,240.85371624648076L570.6118942561404,263.39718987301455L572.5514101870965,226.7998051076611L573.4817470970673,267.5636647022495L574.0651787185743,259.79995880915897L574.3963155848352,246.56099866932118L574.9797472063423,230.86958261746648L575.5474104056465,246.29474190136074L575.5631788278494,187.8124073677748L575.9573893829217,231.3458531507171L576.9350315595012,228.07910646572168L578.0388211137038,248.71539348886697L578.448800090979,265.80483810306185L578.7168632684281,262.6221412831171L579.0795369790948,242.4849335384359L579.8048844004279,232.4921396011418L580.8298318436161,238.03431394295907L580.9402107990363,202.2354261066574L581.0663581766595,239.7302488573009L581.8232424423984,261.40247174401026L581.9651582422244,252.59541791886357L582.8954951521953,272.7491880518036L583.1004846408329,240.44288545780813L585.3869058602526,241.96503135078433L585.5761269266873,243.60302627530632L586.0964848593828,253.261663326596L586.1280217037886,209.93730286612646L586.7587585919044,215.38855170802887L587.7837060350925,227.8548875253257L588.9505692781066,241.91707727926695L589.6916851216428,261.3929087829913L590.2435798987441,270.5240407315582L590.700864142628,262.83631240902287L591.1581483865119,235.8472946744139L591.3631378751496,197.85642555850973L591.4104431417583,168.84485704243784L592.4511590071493,257.228899485238L592.4984642737579,264.2529253017575L593.1765064284824,250.57129910064242L593.7914748943953,246.13221282816366L593.9491591164242,239.80479249950477L594.8321907597863,224.55067301463353L596.9136224905684,235.64450213103666L597.0240014459887,262.37142045830075L597.0397698681916,260.7697070158755L597.1501488236117,225.55643448663292L598.1750962667999,219.6655267065784L598.616612088481,209.30164964922656L598.8058331549157,263.3390280885217L599.0108226435534,243.5139782930888L599.1212015989736,248.05830871693266L600.9188017301036,267.8439719048462L600.9818754189151,253.03343660803836L601.4076228183933,264.11673821449557L601.439159662799,231.94466781982985L602.4956439503931,247.65596286400768L602.8425492388567,249.05119578186444L603.9463387930592,273.6437220742815L604.1040230150883,253.4194676574558L604.3720861925375,245.83332645318814L604.4824651479577,254.3486790191626L604.5297704145664,266.9077611158995L604.7505283254069,232.1264775555344L604.9239809696387,233.5522871901767L607.0684863892324,251.9573816987324L607.6519180107395,210.22396474400657L608.5191812318986,249.67292235650373L608.6295601873189,250.21516390994447L609.654507630507,257.04110645137706L610.0487181855794,258.24424455031897L610.1906339854055,269.8826260111749L610.3798550518402,256.7229084658001L610.6794550736952,213.71387813420495L610.9475182511444,284.9627192059606L611.1840445841877,224.6955410422379L611.7990130501007,267.3955649721482L611.9882341165355,269.0603867360766L612.3824446716078,268.982681230278L612.8554973376946,205.82083499863845L612.9658762931149,251.86551228195316L613.8804447808827,278.0625063971537L614.605792202216,273.0104879667224L614.905392224071,219.67804005255033L615.0157711794911,249.7406677340782L615.7253501786214,250.60672435214093L616.5453081331719,219.69175005815356L616.5926133997806,185.1323024349532L617.1445081768819,232.501372449159L618.2167608866788,246.21427169917263L618.6109714417511,241.05443010955022L619.1470977966495,257.1348894919632L619.1944030632582,237.21854281948845L620.0143610178087,238.90895865708254L620.0301294400116,224.10697019221016L620.3612663062723,204.3567219397638L621.2285295274315,278.68327358088175L621.6542769269098,226.7299552597006L622.6003822590834,215.92663590085402L622.6161506812863,231.8783873187006L623.0261296585616,233.72932060338746L623.2153507249963,200.54028552672602L623.4518770580397,266.73628804356173L623.7672455020976,259.7926860070895L623.9091613019236,255.0334262290391L624.0510771017497,233.56508938502517L624.5241297678365,231.67362441334424L625.2967824557784,245.48783740679605L626.1640456769376,254.385914734155L626.6686351874301,255.70215780031577L627.0155404758939,169.87819326611327L628.1508668745022,239.9532711380656L629.380803806328,243.3476477623561L630.5476670493422,246.16985602639255L631.320319737284,226.2116056347603L631.8879829365883,270.03524137828873L632.8656251131677,229.76086715305155L634.0797936227905,247.2195173696068L634.1270988893992,273.3411116120052L635.3254989768192,232.17372497890747L635.6566358430799,232.2909769907106L635.7827832207031,231.73901773578135L635.9877727093408,252.3227910015728L636.0193095537466,268.42269094497846L636.1139200869638,261.0649260417224L637.1230991079491,252.34853465769237L637.6592254628475,232.4408586095288L637.6907623072533,222.40340141470327L637.7065307294563,265.63020316712937L639.0626150389052,249.08075121155088L639.1099203055138,249.48977153672962L639.5356677049921,215.28030559155428L642.2162994794841,244.24823729520955L642.3266784349044,239.99226057837967L642.9101100564114,259.17236241270757L643.3673943002954,251.28216134376535L643.4462364113099,230.57118109596226L644.1085101438314,216.1853000697746L645.0861523204109,274.5896144586072L645.3542154978601,263.78581540430497L645.369983920063,253.9225082919407L646.410699785454,259.185180081603L646.5368471630771,217.70780186583082L646.7260682295118,226.88613997364564L647.3094998510189,256.83674071322594L647.3252682732218,223.5697834941085L647.3725735398306,247.60562063124337L648.4132894052216,260.56302017068094L649.233247359772,265.6651590392035L649.4697736928155,248.80621067045317L649.7063000258589,236.4958016663188L649.9585947811053,248.64356812091174L650.1635842697428,246.29180183243906L650.7154790468442,197.53799030421283L651.0150790686992,231.1471457557363L651.1254580241194,222.6918995461555L654.7837319751909,219.5597667536481L655.7298373073646,242.95267787181362L656.2028899734514,232.14363311559325L656.5024899953064,262.658257708713L657.905879571364,258.4319447398982L658.5208480372769,257.40788262836526L658.5839217260885,228.9653257669684L658.7258375259145,234.5727077426593L658.8204480591319,259.1276114689101L659.2146586142043,239.90469294665428L660.1134586797692,204.37309348144348L660.7915008344937,261.4993857000972L662.4156483213918,241.99107932982736L663.3775220757684,221.49707616844472L664.2447852969276,251.98288808613194L664.765143229623,255.5930193471334L665.3485748511301,276.27363951480834L666.4681328275357,260.453711502982L666.5627433607531,286.92195534529424L666.704659160579,211.03860110403372L667.5561539595354,260.05755526883956L668.7387856247525,269.34902413395145L668.8964698467814,212.5070056319309L669.2749119796509,265.64533678505256L669.3695225128682,232.7964934727085L670.4102383782592,235.88096620059068L671.797859532114,206.91289007249713L672.3497543092153,231.35269267947174L673.3116280635919,256.9176545047601L673.6112280854469,257.1881614776179L674.2892702401714,239.67365510956623L675.377291372171,257.18591258279355L676.4022388153592,236.483938230319L676.7491441038228,239.98087683783552L678.7675021457933,223.5400733239525L79.56745843580526,244.04346407382192" fill="none"></path></g></g></g></g></g></g><g transform="translate(39, 378)" clip-path="url(#clip_1)"><clipPath id="clip_1"><rect width="709" height="21"></rect></clipPath><g><g><line x1="0" y1="0" x2="0" y2="5" style="visibility: inherit;" fill="rgb(0, 0, 0)" stroke="rgb(204, 204, 204)" stroke-width="1px"></line><line x1="78.84211101447211" y1="0" x2="78.84211101447211" y2="5" style="visibility: inherit;" fill="rgb(0, 0, 0)" stroke="rgb(204, 204, 204)" stroke-width="1px"></line><line x1="157.68422202894422" y1="0" x2="157.68422202894422" y2="5" style="visibility: inherit;" fill="rgb(0, 0, 0)" stroke="rgb(204, 204, 204)" stroke-width="1px"></line><line x1="236.52633304341634" y1="0" x2="236.52633304341634" y2="5" style="visibility: inherit;" fill="rgb(0, 0, 0)" stroke="rgb(204, 204, 204)" stroke-width="1px"></line><line x1="315.36844405788844" y1="0" x2="315.36844405788844" y2="5" style="visibility: inherit;" fill="rgb(0, 0, 0)" stroke="rgb(204, 204, 204)" stroke-width="1px"></line><line x1="394.2105550723606" y1="0" x2="394.2105550723606" y2="5" style="visibility: inherit;" fill="rgb(0, 0, 0)" stroke="rgb(204, 204, 204)" stroke-width="1px"></line><line x1="473.0526660868327" y1="0" x2="473.0526660868327" y2="5" style="visibility: inherit;" fill="rgb(0, 0, 0)" stroke="rgb(204, 204, 204)" stroke-width="1px"></line><line x1="551.8947771013048" y1="0" x2="551.8947771013048" y2="5" style="visibility: inherit;" fill="rgb(0, 0, 0)" stroke="rgb(204, 204, 204)" stroke-width="1px"></line><line x1="630.7368881157769" y1="0" x2="630.7368881157769" y2="5" style="visibility: inherit;" fill="rgb(0, 0, 0)" stroke="rgb(204, 204, 204)" stroke-width="1px"></line><line x1="709.578999130249" y1="0" x2="709.578999130249" y2="5" style="visibility: inherit;" fill="rgb(0, 0, 0)" stroke="rgb(204, 204, 204)" stroke-width="1px"></line></g><g transform="translate(0, 8)"><text style="text-anchor: middle; visibility: hidden; font-family: &quot;Helvetica Neue&quot;, sans-serif; font-size: 12px; font-weight: 200;" x="0" y="0" dx="0em" dy="0.95em" fill="rgb(50, 49, 63)" stroke="none" stroke-width="1px">-5k</text><text style="text-anchor: middle; visibility: hidden; font-family: &quot;Helvetica Neue&quot;, sans-serif; font-size: 12px; font-weight: 200;" x="78.84211101447211" y="0" dx="0em" dy="0.95em" fill="rgb(50, 49, 63)" stroke="none" stroke-width="1px">0</text><text style="text-anchor: middle; visibility: hidden; font-family: &quot;Helvetica Neue&quot;, sans-serif; font-size: 12px; font-weight: 200;" x="157.68422202894422" y="0" dx="0em" dy="0.95em" fill="rgb(50, 49, 63)" stroke="none" stroke-width="1px">5k</text><text style="text-anchor: middle; visibility: hidden; font-family: &quot;Helvetica Neue&quot;, sans-serif; font-size: 12px; font-weight: 200;" x="236.52633304341634" y="0" dx="0em" dy="0.95em" fill="rgb(50, 49, 63)" stroke="none" stroke-width="1px">10k</text><text style="text-anchor: middle; visibility: hidden; font-family: &quot;Helvetica Neue&quot;, sans-serif; font-size: 12px; font-weight: 200;" x="315.36844405788844" y="0" dx="0em" dy="0.95em" fill="rgb(50, 49, 63)" stroke="none" stroke-width="1px">15k</text><text style="text-anchor: middle; visibility: hidden; font-family: &quot;Helvetica Neue&quot;, sans-serif; font-size: 12px; font-weight: 200;" x="394.2105550723606" y="0" dx="0em" dy="0.95em" fill="rgb(50, 49, 63)" stroke="none" stroke-width="1px">20k</text><text style="text-anchor: middle; visibility: hidden; font-family: &quot;Helvetica Neue&quot;, sans-serif; font-size: 12px; font-weight: 200;" x="473.0526660868327" y="0" dx="0em" dy="0.95em" fill="rgb(50, 49, 63)" stroke="none" stroke-width="1px">25k</text><text style="text-anchor: middle; visibility: hidden; font-family: &quot;Helvetica Neue&quot;, sans-serif; font-size: 12px; font-weight: 200;" x="551.8947771013048" y="0" dx="0em" dy="0.95em" fill="rgb(50, 49, 63)" stroke="none" stroke-width="1px">30k</text><text style="text-anchor: middle; visibility: hidden; font-family: &quot;Helvetica Neue&quot;, sans-serif; font-size: 12px; font-weight: 200;" x="630.7368881157769" y="0" dx="0em" dy="0.95em" fill="rgb(50, 49, 63)" stroke="none" stroke-width="1px">35k</text><text style="text-anchor: middle; visibility: hidden; font-family: &quot;Helvetica Neue&quot;, sans-serif; font-size: 12px; font-weight: 200;" x="709.578999130249" y="0" dx="0em" dy="0.95em" fill="rgb(50, 49, 63)" stroke="none" stroke-width="1px">40k</text></g><line x1="0" y1="0" x2="709.578999130249" y2="0" fill="rgb(0, 0, 0)" stroke="rgb(204, 204, 204)" stroke-width="1px"></line></g></g></g></g></svg>